<svg xmlns="http://www.w3.org/2000/svg" version="1.1" xmlns:xlink="http://www.w3.org/1999/xlink" xmlns:svgjs="http://svgjs.com/svgjs" width="1440" height="560" preserveAspectRatio="none" viewBox="0 0 1440 560"><g mask="url(&quot;#SvgjsMask1000&quot;)" fill="none"><rect width="1440" height="560" x="0" y="0" fill="#0e2a47"></rect><path d="M933.52 327.45a2.15 2.15 0 1 0 1.16-4.15z" fill="#e73635"></path><path d="M154.22 430.71L182.34 430.71L182.34 442.16L154.22 442.16z" fill="#037b0b"></path><path d="M448.05 450.58a6.58 6.58 0 1 0 12.97-2.22z" fill="#037b0b"></path><path d="M766.79 39.82 a54.27 54.27 0 1 0 108.54 0 a54.27 54.27 0 1 0 -108.54 0z" fill="#037b0b"></path><path d="M890.63 375.18a4.84 4.84 0 1 0 8.84-3.94z" fill="#e73635"></path><path d="M176.96 511.77L199.37 511.77L199.37 541.44L176.96 541.44z" stroke="#d3b714"></path><path d="M1037.26 430.09L1055.57 430.09L1055.57 448.4L1037.26 448.4z" stroke="#e73635"></path><path d="M238.68 266.25 a0.94 0.94 0 1 0 1.88 0 a0.94 0.94 0 1 0 -1.88 0z" fill="#037b0b"></path><path d="M362.38 229.29a38.89 38.89 0 1 0 49.22 60.23z" stroke="#e73635"></path><path d="M66.16 152.2L83.84 152.2L83.84 169.88L66.16 169.88z" fill="#e73635"></path><path d="M124.45 153.07 a28.02 28.02 0 1 0 56.04 0 a28.02 28.02 0 1 0 -56.04 0z" stroke="#e73635"></path><path d="M506.28 493.37L560.6 493.37L560.6 518.29L506.28 518.29z" stroke="#037b0b"></path><path d="M249.73 85.93a33.25 33.25 0 1 0 62.25-23.4z" stroke="#d3b714"></path><path d="M560.37 294.3L567.58 294.3L567.58 301.51L560.37 301.51z" stroke="#d3b714"></path><path d="M166.2 534.92L189.61 534.92L189.61 558.33L166.2 558.33z" stroke="#d3b714"></path><path d="M90.47 292.95a51.61 51.61 0 1 0-40.04-95.14z" stroke="#d3b714"></path><path d="M458.91 108.82 a21.42 21.42 0 1 0 42.84 0 a21.42 21.42 0 1 0 -42.84 0z" fill="#d3b714"></path><path d="M282.35 356.13L288.19 356.13L288.19 359.42L282.35 359.42z" stroke="#d3b714"></path><path d="M553.91 41.57 a49.07 49.07 0 1 0 98.14 0 a49.07 49.07 0 1 0 -98.14 0z" stroke="#037b0b"></path><path d="M857.41 401.88 a53.46 53.46 0 1 0 106.92 0 a53.46 53.46 0 1 0 -106.92 0z" stroke="#e73635"></path><path d="M474.99 428.79a32.81 32.81 0 1 0-64.2 13.59z" stroke="#d3b714"></path><path d="M840.58 23.84L850.06 23.84L850.06 41.92L840.58 41.92z" stroke="#e73635"></path><path d="M768.32 249.1 a16.63 16.63 0 1 0 33.26 0 a16.63 16.63 0 1 0 -33.26 0z" stroke="#d3b714"></path><path d="M1428.35 27.93L1475.84 27.93L1475.84 40.7L1428.35 40.7z" fill="#e73635"></path><path d="M806.89 193.27L843.05 193.27L843.05 229.43L806.89 229.43z" stroke="#e73635"></path><path d="M1250.17 523.96L1292.85 523.96L1292.85 566.64L1250.17 566.64z" fill="#e73635"></path><path d="M747.54 192.37 a46.4 46.4 0 1 0 92.8 0 a46.4 46.4 0 1 0 -92.8 0z" fill="#037b0b"></path><path d="M537.82 57.7L580.34 57.7L580.34 100.22L537.82 100.22z" stroke="#e73635"></path><path d="M1293.29 439.87L1343.09 439.87L1343.09 454.11L1293.29 454.11z" stroke="#d3b714"></path><path d="M801.34 68.39L841.08 68.39L841.08 108.13L801.34 108.13z" stroke="#037b0b"></path><path d="M1332.4 504.59L1348.41 504.59L1348.41 520.6L1332.4 520.6z" fill="#d3b714"></path><path d="M57 72.08a40.45 40.45 0 1 0-0.36-80.9z" stroke="#037b0b"></path><path d="M1033.37 304.24L1088.19 304.24L1088.19 341.84L1033.37 341.84z" fill="#e73635"></path></g><defs><mask id="SvgjsMask1000"><rect width="1440" height="560" fill="#ffffff"></rect></mask></defs></svg>