<svg xmlns="http://www.w3.org/2000/svg" version="1.1" xmlns:xlink="http://www.w3.org/1999/xlink" xmlns:svgjs="http://svgjs.com/svgjs" width="1440" height="560" preserveAspectRatio="none" viewBox="0 0 1440 560"><g mask="url(&quot;#SvgjsMask1000&quot;)" fill="none"><rect width="1440" height="560" x="0" y="0" fill="#0e2a47"></rect><path d="M-87.23 358.28L-87.23 358.28" stroke="#132e65" stroke-width="1.5"></path><path d="M-87.23 358.28L64.67 381.61" stroke="#132e65" stroke-width="1.5"></path><path d="M-87.23 358.28L-52.23 546.73" stroke="#132e65" stroke-width="1.5"></path><path d="M-52.23 546.73L-52.23 546.73" stroke="#132e65" stroke-width="1.5"></path><path d="M-52.23 546.73L62.05 554.63" stroke="#132e65" stroke-width="1.5"></path><path d="M-52.23 546.73L-104.97 659.23" stroke="#132e65" stroke-width="1.5"></path><path d="M-104.97 659.23L-104.97 659.23" stroke="#132e65" stroke-width="1.5"></path><path d="M-104.97 659.23L62.05 554.63" stroke="#132e65" stroke-width="1.5"></path><path d="M64.67 381.61L64.67 381.61" stroke="#132e65" stroke-width="1.5"></path><path d="M64.67 381.61L225.87 366.45" stroke="#132e65" stroke-width="1.5"></path><path d="M64.67 381.61L62.05 554.63" stroke="#132e65" stroke-width="1.5"></path><path d="M64.67 381.61L-52.23 546.73" stroke="#132e65" stroke-width="1.5"></path><path d="M64.67 381.61L233.06 514.52" stroke="#132e65" stroke-width="1.5"></path><path d="M62.05 554.63L62.05 554.63" stroke="#132e65" stroke-width="1.5"></path><path d="M62.05 554.63L97.74 684.56" stroke="#132e65" stroke-width="1.5"></path><path d="M62.05 554.63L233.06 514.52" stroke="#132e65" stroke-width="1.5"></path><path d="M62.05 554.63L227.47 642.81" stroke="#132e65" stroke-width="1.5"></path><path d="M97.74 684.56L97.74 684.56" stroke="#132e65" stroke-width="1.5"></path><path d="M97.74 684.56L227.47 642.81" stroke="#132e65" stroke-width="1.5"></path><path d="M97.74 684.56L-52.23 546.73" stroke="#132e65" stroke-width="1.5"></path><path d="M225.87 366.45L225.87 366.45" stroke="#132e65" stroke-width="1.5"></path><path d="M225.87 366.45L233.06 514.52" stroke="#132e65" stroke-width="1.5"></path><path d="M225.87 366.45L403.03 403.52" stroke="#132e65" stroke-width="1.5"></path><path d="M225.87 366.45L375.09 506.74" stroke="#132e65" stroke-width="1.5"></path><path d="M225.87 366.45L62.05 554.63" stroke="#132e65" stroke-width="1.5"></path><path d="M233.06 514.52L233.06 514.52" stroke="#132e65" stroke-width="1.5"></path><path d="M233.06 514.52L227.47 642.81" stroke="#132e65" stroke-width="1.5"></path><path d="M233.06 514.52L375.09 506.74" stroke="#132e65" stroke-width="1.5"></path><path d="M227.47 642.81L227.47 642.81" stroke="#132e65" stroke-width="1.5"></path><path d="M227.47 642.81L382.66 650.92" stroke="#132e65" stroke-width="1.5"></path><path d="M227.47 642.81L375.09 506.74" stroke="#132e65" stroke-width="1.5"></path><path d="M227.47 642.81L225.87 366.45" stroke="#132e65" stroke-width="1.5"></path><path d="M403.03 403.52L403.03 403.52" stroke="#132e65" stroke-width="1.5"></path><path d="M403.03 403.52L375.09 506.74" stroke="#132e65" stroke-width="1.5"></path><path d="M403.03 403.52L518.38 404.62" stroke="#132e65" stroke-width="1.5"></path><path d="M375.09 506.74L375.09 506.74" stroke="#132e65" stroke-width="1.5"></path><path d="M375.09 506.74L382.66 650.92" stroke="#132e65" stroke-width="1.5"></path><path d="M375.09 506.74L518.38 404.62" stroke="#132e65" stroke-width="1.5"></path><path d="M382.66 650.92L382.66 650.92" stroke="#132e65" stroke-width="1.5"></path><path d="M382.66 650.92L553.73 700.59" stroke="#132e65" stroke-width="1.5"></path><path d="M382.66 650.92L233.06 514.52" stroke="#132e65" stroke-width="1.5"></path><path d="M518.38 404.62L518.38 404.62" stroke="#132e65" stroke-width="1.5"></path><path d="M518.38 404.62L690.76 393.29" stroke="#132e65" stroke-width="1.5"></path><path d="M553.73 700.59L553.73 700.59" stroke="#132e65" stroke-width="1.5"></path><path d="M553.73 700.59L692.8 641.11" stroke="#132e65" stroke-width="1.5"></path><path d="M553.73 700.59L674.16 531.73" stroke="#132e65" stroke-width="1.5"></path><path d="M690.76 393.29L690.76 393.29" stroke="#132e65" stroke-width="1.5"></path><path d="M690.76 393.29L810.61 369.45" stroke="#132e65" stroke-width="1.5"></path><path d="M690.76 393.29L674.16 531.73" stroke="#132e65" stroke-width="1.5"></path><path d="M690.76 393.29L787.94 551.9" stroke="#132e65" stroke-width="1.5"></path><path d="M674.16 531.73L674.16 531.73" stroke="#132e65" stroke-width="1.5"></path><path d="M674.16 531.73L692.8 641.11" stroke="#132e65" stroke-width="1.5"></path><path d="M674.16 531.73L787.94 551.9" stroke="#132e65" stroke-width="1.5"></path><path d="M674.16 531.73L518.38 404.62" stroke="#132e65" stroke-width="1.5"></path><path d="M674.16 531.73L810.61 369.45" stroke="#132e65" stroke-width="1.5"></path><path d="M692.8 641.11L692.8 641.11" stroke="#132e65" stroke-width="1.5"></path><path d="M692.8 641.11L787.94 551.9" stroke="#132e65" stroke-width="1.5"></path><path d="M692.8 641.11L832.02 689.12" stroke="#132e65" stroke-width="1.5"></path><path d="M692.8 641.11L690.76 393.29" stroke="#132e65" stroke-width="1.5"></path><path d="M856.78 48.11L856.78 48.11" stroke="#132e65" stroke-width="1.5"></path><path d="M856.78 48.11L1005.65 67.54" stroke="#132e65" stroke-width="1.5"></path><path d="M856.78 48.11L862.05 199.78" stroke="#132e65" stroke-width="1.5"></path><path d="M856.78 48.11L1008.53 -108.18" stroke="#132e65" stroke-width="1.5"></path><path d="M862.05 199.78L862.05 199.78" stroke="#132e65" stroke-width="1.5"></path><path d="M862.05 199.78L948.59 261.71" stroke="#132e65" stroke-width="1.5"></path><path d="M862.05 199.78L810.61 369.45" stroke="#132e65" stroke-width="1.5"></path><path d="M862.05 199.78L1005.65 67.54" stroke="#132e65" stroke-width="1.5"></path><path d="M810.61 369.45L810.61 369.45" stroke="#132e65" stroke-width="1.5"></path><path d="M810.61 369.45L948.59 261.71" stroke="#132e65" stroke-width="1.5"></path><path d="M810.61 369.45L787.94 551.9" stroke="#132e65" stroke-width="1.5"></path><path d="M787.94 551.9L787.94 551.9" stroke="#132e65" stroke-width="1.5"></path><path d="M787.94 551.9L832.02 689.12" stroke="#132e65" stroke-width="1.5"></path><path d="M787.94 551.9L965.57 671.26" stroke="#132e65" stroke-width="1.5"></path><path d="M832.02 689.12L832.02 689.12" stroke="#132e65" stroke-width="1.5"></path><path d="M832.02 689.12L965.57 671.26" stroke="#132e65" stroke-width="1.5"></path><path d="M832.02 689.12L674.16 531.73" stroke="#132e65" stroke-width="1.5"></path><path d="M832.02 689.12L1012.42 494.99" stroke="#132e65" stroke-width="1.5"></path><path d="M1008.53 -108.18L1008.53 -108.18" stroke="#132e65" stroke-width="1.5"></path><path d="M1008.53 -108.18L1095.17 -44.42" stroke="#132e65" stroke-width="1.5"></path><path d="M1008.53 -108.18L1005.65 67.54" stroke="#132e65" stroke-width="1.5"></path><path d="M1008.53 -108.18L1133.04 39.8" stroke="#132e65" stroke-width="1.5"></path><path d="M1005.65 67.54L1005.65 67.54" stroke="#132e65" stroke-width="1.5"></path><path d="M1005.65 67.54L1133.04 39.8" stroke="#132e65" stroke-width="1.5"></path><path d="M1005.65 67.54L1095.17 -44.42" stroke="#132e65" stroke-width="1.5"></path><path d="M1005.65 67.54L1113.32 205.12" stroke="#132e65" stroke-width="1.5"></path><path d="M948.59 261.71L948.59 261.71" stroke="#132e65" stroke-width="1.5"></path><path d="M948.59 261.71L1001.74 346.27" stroke="#132e65" stroke-width="1.5"></path><path d="M1001.74 346.27L1001.74 346.27" stroke="#132e65" stroke-width="1.5"></path><path d="M1001.74 346.27L1114.51 404.38" stroke="#132e65" stroke-width="1.5"></path><path d="M1001.74 346.27L1012.42 494.99" stroke="#132e65" stroke-width="1.5"></path><path d="M1012.42 494.99L1012.42 494.99" stroke="#132e65" stroke-width="1.5"></path><path d="M1012.42 494.99L1114.51 404.38" stroke="#132e65" stroke-width="1.5"></path><path d="M1012.42 494.99L965.57 671.26" stroke="#132e65" stroke-width="1.5"></path><path d="M965.57 671.26L965.57 671.26" stroke="#132e65" stroke-width="1.5"></path><path d="M1095.17 -44.42L1095.17 -44.42" stroke="#132e65" stroke-width="1.5"></path><path d="M1095.17 -44.42L1133.04 39.8" stroke="#132e65" stroke-width="1.5"></path><path d="M1133.04 39.8L1133.04 39.8" stroke="#132e65" stroke-width="1.5"></path><path d="M1133.04 39.8L1113.32 205.12" stroke="#132e65" stroke-width="1.5"></path><path d="M1133.04 39.8L1256.44 197.5" stroke="#132e65" stroke-width="1.5"></path><path d="M1133.04 39.8L1300.63 -108.33" stroke="#132e65" stroke-width="1.5"></path><path d="M1113.32 205.12L1113.32 205.12" stroke="#132e65" stroke-width="1.5"></path><path d="M1113.32 205.12L1256.44 197.5" stroke="#132e65" stroke-width="1.5"></path><path d="M1113.32 205.12L948.59 261.71" stroke="#132e65" stroke-width="1.5"></path><path d="M1114.51 404.38L1114.51 404.38" stroke="#132e65" stroke-width="1.5"></path><path d="M1114.51 404.38L1254.53 379.67" stroke="#132e65" stroke-width="1.5"></path><path d="M1114.51 404.38L1272.02 490.03" stroke="#132e65" stroke-width="1.5"></path><path d="M1114.51 404.38L1113.32 205.12" stroke="#132e65" stroke-width="1.5"></path><path d="M1300.63 -108.33L1300.63 -108.33" stroke="#132e65" stroke-width="1.5"></path><path d="M1300.63 -108.33L1423.17 -42.98" stroke="#132e65" stroke-width="1.5"></path><path d="M1300.63 -108.33L1095.17 -44.42" stroke="#132e65" stroke-width="1.5"></path><path d="M1256.44 197.5L1256.44 197.5" stroke="#132e65" stroke-width="1.5"></path><path d="M1256.44 197.5L1254.53 379.67" stroke="#132e65" stroke-width="1.5"></path><path d="M1256.44 197.5L1454.05 225.88" stroke="#132e65" stroke-width="1.5"></path><path d="M1254.53 379.67L1254.53 379.67" stroke="#132e65" stroke-width="1.5"></path><path d="M1254.53 379.67L1272.02 490.03" stroke="#132e65" stroke-width="1.5"></path><path d="M1254.53 379.67L1409.59 410.58" stroke="#132e65" stroke-width="1.5"></path><path d="M1254.53 379.67L1113.32 205.12" stroke="#132e65" stroke-width="1.5"></path><path d="M1272.02 490.03L1272.02 490.03" stroke="#132e65" stroke-width="1.5"></path><path d="M1272.02 490.03L1409.59 410.58" stroke="#132e65" stroke-width="1.5"></path><path d="M1252.51 695.23L1252.51 695.23" stroke="#132e65" stroke-width="1.5"></path><path d="M1252.51 695.23L1395.01 667.72" stroke="#132e65" stroke-width="1.5"></path><path d="M1252.51 695.23L1272.02 490.03" stroke="#132e65" stroke-width="1.5"></path><path d="M1252.51 695.23L1423.73 546.34" stroke="#132e65" stroke-width="1.5"></path><path d="M1252.51 695.23L965.57 671.26" stroke="#132e65" stroke-width="1.5"></path><path d="M1423.17 -42.98L1423.17 -42.98" stroke="#132e65" stroke-width="1.5"></path><path d="M1423.17 -42.98L1454.53 89.55" stroke="#132e65" stroke-width="1.5"></path><path d="M1423.17 -42.98L1604.69 -85.67" stroke="#132e65" stroke-width="1.5"></path><path d="M1423.17 -42.98L1575.76 70.11" stroke="#132e65" stroke-width="1.5"></path><path d="M1454.53 89.55L1454.53 89.55" stroke="#132e65" stroke-width="1.5"></path><path d="M1454.53 89.55L1575.76 70.11" stroke="#132e65" stroke-width="1.5"></path><path d="M1454.53 89.55L1454.05 225.88" stroke="#132e65" stroke-width="1.5"></path><path d="M1454.53 89.55L1602.93 229.74" stroke="#132e65" stroke-width="1.5"></path><path d="M1454.53 89.55L1256.44 197.5" stroke="#132e65" stroke-width="1.5"></path><path d="M1454.53 89.55L1604.69 -85.67" stroke="#132e65" stroke-width="1.5"></path><path d="M1454.05 225.88L1454.05 225.88" stroke="#132e65" stroke-width="1.5"></path><path d="M1454.05 225.88L1602.93 229.74" stroke="#132e65" stroke-width="1.5"></path><path d="M1454.05 225.88L1409.59 410.58" stroke="#132e65" stroke-width="1.5"></path><path d="M1454.05 225.88L1575.76 70.11" stroke="#132e65" stroke-width="1.5"></path><path d="M1409.59 410.58L1409.59 410.58" stroke="#132e65" stroke-width="1.5"></path><path d="M1409.59 410.58L1423.73 546.34" stroke="#132e65" stroke-width="1.5"></path><path d="M1409.59 410.58L1541.61 499" stroke="#132e65" stroke-width="1.5"></path><path d="M1423.73 546.34L1423.73 546.34" stroke="#132e65" stroke-width="1.5"></path><path d="M1423.73 546.34L1395.01 667.72" stroke="#132e65" stroke-width="1.5"></path><path d="M1423.73 546.34L1541.61 499" stroke="#132e65" stroke-width="1.5"></path><path d="M1395.01 667.72L1395.01 667.72" stroke="#132e65" stroke-width="1.5"></path><path d="M1395.01 667.72L1588.31 696.19" stroke="#132e65" stroke-width="1.5"></path><path d="M1395.01 667.72L1272.02 490.03" stroke="#132e65" stroke-width="1.5"></path><path d="M1604.69 -85.67L1604.69 -85.67" stroke="#132e65" stroke-width="1.5"></path><path d="M1604.69 -85.67L1575.76 70.11" stroke="#132e65" stroke-width="1.5"></path><path d="M1604.69 -85.67L1300.63 -108.33" stroke="#132e65" stroke-width="1.5"></path><path d="M1575.76 70.11L1575.76 70.11" stroke="#132e65" stroke-width="1.5"></path><path d="M1575.76 70.11L1602.93 229.74" stroke="#132e65" stroke-width="1.5"></path><path d="M1602.93 229.74L1602.93 229.74" stroke="#132e65" stroke-width="1.5"></path><path d="M1602.93 229.74L1409.59 410.58" stroke="#132e65" stroke-width="1.5"></path><path d="M1602.93 229.74L1541.61 499" stroke="#132e65" stroke-width="1.5"></path><path d="M1602.93 229.74L1604.69 -85.67" stroke="#132e65" stroke-width="1.5"></path><path d="M1541.61 499L1541.61 499" stroke="#132e65" stroke-width="1.5"></path><path d="M1588.31 696.19L1588.31 696.19" stroke="#132e65" stroke-width="1.5"></path><path d="M1588.31 696.19L1541.61 499" stroke="#132e65" stroke-width="1.5"></path><circle r="5" cx="-87.23" cy="358.28" fill="#132e65"></circle><circle r="5" cx="-52.23" cy="546.73" fill="#132e65"></circle><circle r="5" cx="-104.97" cy="659.23" fill="#132e65"></circle><circle r="5" cx="64.67" cy="381.61" fill="#132e65"></circle><circle r="5" cx="62.05" cy="554.63" fill="#132e65"></circle><circle r="5" cx="97.74" cy="684.56" fill="#132e65"></circle><circle r="5" cx="225.87" cy="366.45" fill="#132e65"></circle><circle r="5" cx="233.06" cy="514.52" fill="#132e65"></circle><circle r="5" cx="227.47" cy="642.81" fill="#132e65"></circle><circle r="5" cx="403.03" cy="403.52" fill="#132e65"></circle><circle r="5" cx="375.09" cy="506.74" fill="#132e65"></circle><circle r="5" cx="382.66" cy="650.92" fill="#132e65"></circle><circle r="5" cx="518.38" cy="404.62" fill="#132e65"></circle><circle r="5" cx="553.73" cy="700.59" fill="#132e65"></circle><circle r="5" cx="690.76" cy="393.29" fill="#132e65"></circle><circle r="5" cx="674.16" cy="531.73" fill="#132e65"></circle><circle r="5" cx="692.8" cy="641.11" fill="#132e65"></circle><circle r="5" cx="856.78" cy="48.11" fill="#132e65"></circle><circle r="5" cx="862.05" cy="199.78" fill="#132e65"></circle><circle r="5" cx="810.61" cy="369.45" fill="#132e65"></circle><circle r="5" cx="787.94" cy="551.9" fill="#132e65"></circle><circle r="5" cx="832.02" cy="689.12" fill="#132e65"></circle><circle r="5" cx="1008.53" cy="-108.18" fill="#132e65"></circle><circle r="5" cx="1005.65" cy="67.54" fill="#132e65"></circle><circle r="5" cx="948.59" cy="261.71" fill="#132e65"></circle><circle r="5" cx="1001.74" cy="346.27" fill="#132e65"></circle><circle r="5" cx="1012.42" cy="494.99" fill="#132e65"></circle><circle r="5" cx="965.57" cy="671.26" fill="#132e65"></circle><circle r="5" cx="1095.17" cy="-44.42" fill="#132e65"></circle><circle r="5" cx="1133.04" cy="39.8" fill="#132e65"></circle><circle r="5" cx="1113.32" cy="205.12" fill="#132e65"></circle><circle r="5" cx="1114.51" cy="404.38" fill="#132e65"></circle><circle r="5" cx="1300.63" cy="-108.33" fill="#132e65"></circle><circle r="5" cx="1256.44" cy="197.5" fill="#132e65"></circle><circle r="5" cx="1254.53" cy="379.67" fill="#132e65"></circle><circle r="5" cx="1272.02" cy="490.03" fill="#132e65"></circle><circle r="5" cx="1252.51" cy="695.23" fill="#132e65"></circle><circle r="5" cx="1423.17" cy="-42.98" fill="#132e65"></circle><circle r="5" cx="1454.53" cy="89.55" fill="#132e65"></circle><circle r="5" cx="1454.05" cy="225.88" fill="#132e65"></circle><circle r="5" cx="1409.59" cy="410.58" fill="#132e65"></circle><circle r="5" cx="1423.73" cy="546.34" fill="#132e65"></circle><circle r="5" cx="1395.01" cy="667.72" fill="#132e65"></circle><circle r="5" cx="1604.69" cy="-85.67" fill="#132e65"></circle><circle r="5" cx="1575.76" cy="70.11" fill="#132e65"></circle><circle r="5" cx="1602.93" cy="229.74" fill="#132e65"></circle><circle r="5" cx="1541.61" cy="499" fill="#132e65"></circle><circle r="5" cx="1588.31" cy="696.19" fill="#132e65"></circle><path d="M-79.76 652.9L-79.76 652.9" stroke="hsl(228.5, 77.2%, 51.5%)" stroke-width="1.5"></path><path d="M-79.76 652.9L-92.2 552.09" stroke="hsl(228.5, 77.2%, 51.5%)" stroke-width="1.5"></path><path d="M-79.76 652.9L37.95 541.01" stroke="hsl(228.5, 77.2%, 51.5%)" stroke-width="1.5"></path><path d="M-79.76 652.9L98.47 696.02" stroke="hsl(228.5, 77.2%, 51.5%)" stroke-width="1.5"></path><path d="M205.54 654.44L205.54 654.44" stroke="hsl(228.5, 77.2%, 51.5%)" stroke-width="1.5"></path><path d="M205.54 654.44L226.55 558.54" stroke="hsl(228.5, 77.2%, 51.5%)" stroke-width="1.5"></path><path d="M205.54 654.44L98.47 696.02" stroke="hsl(228.5, 77.2%, 51.5%)" stroke-width="1.5"></path><path d="M205.54 654.44L386.03 643.46" stroke="hsl(228.5, 77.2%, 51.5%)" stroke-width="1.5"></path><path d="M205.54 654.44L37.95 541.01" stroke="hsl(228.5, 77.2%, 51.5%)" stroke-width="1.5"></path><path d="M205.54 654.44L362.13 523.41" stroke="hsl(228.5, 77.2%, 51.5%)" stroke-width="1.5"></path><path d="M205.54 654.44L-79.76 652.9" stroke="hsl(228.5, 77.2%, 51.5%)" stroke-width="1.5"></path><path d="M362.13 523.41L362.13 523.41" stroke="hsl(228.5, 77.2%, 51.5%)" stroke-width="1.5"></path><path d="M362.13 523.41L386.03 643.46" stroke="hsl(228.5, 77.2%, 51.5%)" stroke-width="1.5"></path><path d="M362.13 523.41L226.55 558.54" stroke="hsl(228.5, 77.2%, 51.5%)" stroke-width="1.5"></path><path d="M362.13 523.41L512.52 526.9" stroke="hsl(228.5, 77.2%, 51.5%)" stroke-width="1.5"></path><path d="M362.13 523.41L511.66 409.57" stroke="hsl(228.5, 77.2%, 51.5%)" stroke-width="1.5"></path><path d="M674.46 517.65L674.46 517.65" stroke="hsl(228.5, 77.2%, 51.5%)" stroke-width="1.5"></path><path d="M674.46 517.65L795.36 531.46" stroke="hsl(228.5, 77.2%, 51.5%)" stroke-width="1.5"></path><path d="M674.46 517.65L512.52 526.9" stroke="hsl(228.5, 77.2%, 51.5%)" stroke-width="1.5"></path><path d="M674.46 517.65L792.77 645.08" stroke="hsl(228.5, 77.2%, 51.5%)" stroke-width="1.5"></path><path d="M850.34 376.77L850.34 376.77" stroke="hsl(228.5, 77.2%, 51.5%)" stroke-width="1.5"></path><path d="M850.34 376.77L990.79 391.91" stroke="hsl(228.5, 77.2%, 51.5%)" stroke-width="1.5"></path><path d="M850.34 376.77L795.36 531.46" stroke="hsl(228.5, 77.2%, 51.5%)" stroke-width="1.5"></path><path d="M850.34 376.77L992.23 234.87" stroke="hsl(228.5, 77.2%, 51.5%)" stroke-width="1.5"></path><path d="M850.34 376.77L969.99 558.79" stroke="hsl(228.5, 77.2%, 51.5%)" stroke-width="1.5"></path><path d="M1154.85 51.38L1154.85 51.38" stroke="hsl(228.5, 77.2%, 51.5%)" stroke-width="1.5"></path><path d="M1154.85 51.38L1290.92 44.76" stroke="hsl(228.5, 77.2%, 51.5%)" stroke-width="1.5"></path><path d="M1154.85 51.38L1156.11 209.5" stroke="hsl(228.5, 77.2%, 51.5%)" stroke-width="1.5"></path><path d="M1154.85 51.38L1255.47 -112.16" stroke="hsl(228.5, 77.2%, 51.5%)" stroke-width="1.5"></path><path d="M1094.73 364.26L1094.73 364.26" stroke="hsl(228.5, 77.2%, 51.5%)" stroke-width="1.5"></path><path d="M1094.73 364.26L990.79 391.91" stroke="hsl(228.5, 77.2%, 51.5%)" stroke-width="1.5"></path><path d="M1094.73 364.26L1152.91 516.86" stroke="hsl(228.5, 77.2%, 51.5%)" stroke-width="1.5"></path><path d="M1094.73 364.26L992.23 234.87" stroke="hsl(228.5, 77.2%, 51.5%)" stroke-width="1.5"></path><path d="M1290.92 44.76L1290.92 44.76" stroke="hsl(228.5, 77.2%, 51.5%)" stroke-width="1.5"></path><path d="M1290.92 44.76L1440.11 67.06" stroke="hsl(228.5, 77.2%, 51.5%)" stroke-width="1.5"></path><path d="M1290.92 44.76L1255.47 -112.16" stroke="hsl(228.5, 77.2%, 51.5%)" stroke-width="1.5"></path><path d="M1290.92 44.76L1436.94 -52.42" stroke="hsl(228.5, 77.2%, 51.5%)" stroke-width="1.5"></path><path d="M1290.92 44.76L1307.02 240.88" stroke="hsl(228.5, 77.2%, 51.5%)" stroke-width="1.5"></path><path d="M1290.92 44.76L1156.11 209.5" stroke="hsl(228.5, 77.2%, 51.5%)" stroke-width="1.5"></path><path d="M1268.06 545.54L1268.06 545.54" stroke="hsl(228.5, 77.2%, 51.5%)" stroke-width="1.5"></path><path d="M1268.06 545.54L1152.91 516.86" stroke="hsl(228.5, 77.2%, 51.5%)" stroke-width="1.5"></path><path d="M1268.06 545.54L1290.08 711.2" stroke="hsl(228.5, 77.2%, 51.5%)" stroke-width="1.5"></path><path d="M1290.08 711.2L1290.08 711.2" stroke="hsl(228.5, 77.2%, 51.5%)" stroke-width="1.5"></path><path d="M1290.08 711.2L1434.87 703.81" stroke="hsl(228.5, 77.2%, 51.5%)" stroke-width="1.5"></path><path d="M1290.08 711.2L1092.62 638.61" stroke="hsl(228.5, 77.2%, 51.5%)" stroke-width="1.5"></path><path d="M1290.08 711.2L1436.06 528.06" stroke="hsl(228.5, 77.2%, 51.5%)" stroke-width="1.5"></path><path d="M1436.94 -52.42L1436.94 -52.42" stroke="hsl(228.5, 77.2%, 51.5%)" stroke-width="1.5"></path><path d="M1436.94 -52.42L1440.11 67.06" stroke="hsl(228.5, 77.2%, 51.5%)" stroke-width="1.5"></path><path d="M1436.94 -52.42L1570.5 -91.28" stroke="hsl(228.5, 77.2%, 51.5%)" stroke-width="1.5"></path><path d="M1436.94 -52.42L1568.81 81.27" stroke="hsl(228.5, 77.2%, 51.5%)" stroke-width="1.5"></path><path d="M1436.94 -52.42L1255.47 -112.16" stroke="hsl(228.5, 77.2%, 51.5%)" stroke-width="1.5"></path><path d="M1436.94 -52.42L1410.44 246.29" stroke="hsl(228.5, 77.2%, 51.5%)" stroke-width="1.5"></path><path d="M1570.5 -91.28L1570.5 -91.28" stroke="hsl(228.5, 77.2%, 51.5%)" stroke-width="1.5"></path><path d="M1570.5 -91.28L1568.81 81.27" stroke="hsl(228.5, 77.2%, 51.5%)" stroke-width="1.5"></path><path d="M1570.5 -91.28L1440.11 67.06" stroke="hsl(228.5, 77.2%, 51.5%)" stroke-width="1.5"></path><path d="M1570.5 -91.28L1290.92 44.76" stroke="hsl(228.5, 77.2%, 51.5%)" stroke-width="1.5"></path><path d="M1570.5 -91.28L1255.47 -112.16" stroke="hsl(228.5, 77.2%, 51.5%)" stroke-width="1.5"></path><path d="M-92.2 552.09L-92.2 552.09" stroke="hsl(228.5, 77.2%, 51.5%)" stroke-width="1.5"></path><path d="M-92.2 552.09L37.95 541.01" stroke="hsl(228.5, 77.2%, 51.5%)" stroke-width="1.5"></path><path d="M-92.2 552.09L98.47 696.02" stroke="hsl(228.5, 77.2%, 51.5%)" stroke-width="1.5"></path><path d="M37.95 541.01L37.95 541.01" stroke="hsl(228.5, 77.2%, 51.5%)" stroke-width="1.5"></path><path d="M37.95 541.01L98.47 696.02" stroke="hsl(228.5, 77.2%, 51.5%)" stroke-width="1.5"></path><path d="M98.47 696.02L98.47 696.02" stroke="hsl(228.5, 77.2%, 51.5%)" stroke-width="1.5"></path><path d="M98.47 696.02L226.55 558.54" stroke="hsl(228.5, 77.2%, 51.5%)" stroke-width="1.5"></path><path d="M226.55 558.54L226.55 558.54" stroke="hsl(228.5, 77.2%, 51.5%)" stroke-width="1.5"></path><path d="M226.55 558.54L386.03 643.46" stroke="hsl(228.5, 77.2%, 51.5%)" stroke-width="1.5"></path><path d="M386.03 643.46L386.03 643.46" stroke="hsl(228.5, 77.2%, 51.5%)" stroke-width="1.5"></path><path d="M386.03 643.46L544.24 686.62" stroke="hsl(228.5, 77.2%, 51.5%)" stroke-width="1.5"></path><path d="M386.03 643.46L512.52 526.9" stroke="hsl(228.5, 77.2%, 51.5%)" stroke-width="1.5"></path><path d="M386.03 643.46L511.66 409.57" stroke="hsl(228.5, 77.2%, 51.5%)" stroke-width="1.5"></path><path d="M511.66 409.57L511.66 409.57" stroke="hsl(228.5, 77.2%, 51.5%)" stroke-width="1.5"></path><path d="M511.66 409.57L512.52 526.9" stroke="hsl(228.5, 77.2%, 51.5%)" stroke-width="1.5"></path><path d="M511.66 409.57L674.46 517.65" stroke="hsl(228.5, 77.2%, 51.5%)" stroke-width="1.5"></path><path d="M512.52 526.9L512.52 526.9" stroke="hsl(228.5, 77.2%, 51.5%)" stroke-width="1.5"></path><path d="M544.24 686.62L544.24 686.62" stroke="hsl(228.5, 77.2%, 51.5%)" stroke-width="1.5"></path><path d="M544.24 686.62L664.37 709.75" stroke="hsl(228.5, 77.2%, 51.5%)" stroke-width="1.5"></path><path d="M544.24 686.62L512.52 526.9" stroke="hsl(228.5, 77.2%, 51.5%)" stroke-width="1.5"></path><path d="M544.24 686.62L674.46 517.65" stroke="hsl(228.5, 77.2%, 51.5%)" stroke-width="1.5"></path><path d="M544.24 686.62L362.13 523.41" stroke="hsl(228.5, 77.2%, 51.5%)" stroke-width="1.5"></path><path d="M544.24 686.62L792.77 645.08" stroke="hsl(228.5, 77.2%, 51.5%)" stroke-width="1.5"></path><path d="M664.37 709.75L664.37 709.75" stroke="hsl(228.5, 77.2%, 51.5%)" stroke-width="1.5"></path><path d="M664.37 709.75L792.77 645.08" stroke="hsl(228.5, 77.2%, 51.5%)" stroke-width="1.5"></path><path d="M664.37 709.75L674.46 517.65" stroke="hsl(228.5, 77.2%, 51.5%)" stroke-width="1.5"></path><path d="M664.37 709.75L795.36 531.46" stroke="hsl(228.5, 77.2%, 51.5%)" stroke-width="1.5"></path><path d="M795.36 531.46L795.36 531.46" stroke="hsl(228.5, 77.2%, 51.5%)" stroke-width="1.5"></path><path d="M795.36 531.46L792.77 645.08" stroke="hsl(228.5, 77.2%, 51.5%)" stroke-width="1.5"></path><path d="M792.77 645.08L792.77 645.08" stroke="hsl(228.5, 77.2%, 51.5%)" stroke-width="1.5"></path><path d="M792.77 645.08L969.99 558.79" stroke="hsl(228.5, 77.2%, 51.5%)" stroke-width="1.5"></path><path d="M992.23 234.87L992.23 234.87" stroke="hsl(228.5, 77.2%, 51.5%)" stroke-width="1.5"></path><path d="M992.23 234.87L990.79 391.91" stroke="hsl(228.5, 77.2%, 51.5%)" stroke-width="1.5"></path><path d="M992.23 234.87L1156.11 209.5" stroke="hsl(228.5, 77.2%, 51.5%)" stroke-width="1.5"></path><path d="M992.23 234.87L1154.85 51.38" stroke="hsl(228.5, 77.2%, 51.5%)" stroke-width="1.5"></path><path d="M992.23 234.87L1307.02 240.88" stroke="hsl(228.5, 77.2%, 51.5%)" stroke-width="1.5"></path><path d="M990.79 391.91L990.79 391.91" stroke="hsl(228.5, 77.2%, 51.5%)" stroke-width="1.5"></path><path d="M969.99 558.79L969.99 558.79" stroke="hsl(228.5, 77.2%, 51.5%)" stroke-width="1.5"></path><path d="M969.99 558.79L1092.62 638.61" stroke="hsl(228.5, 77.2%, 51.5%)" stroke-width="1.5"></path><path d="M969.99 558.79L990.79 391.91" stroke="hsl(228.5, 77.2%, 51.5%)" stroke-width="1.5"></path><path d="M969.99 558.79L795.36 531.46" stroke="hsl(228.5, 77.2%, 51.5%)" stroke-width="1.5"></path><path d="M1156.11 209.5L1156.11 209.5" stroke="hsl(228.5, 77.2%, 51.5%)" stroke-width="1.5"></path><path d="M1156.11 209.5L1307.02 240.88" stroke="hsl(228.5, 77.2%, 51.5%)" stroke-width="1.5"></path><path d="M1152.91 516.86L1152.91 516.86" stroke="hsl(228.5, 77.2%, 51.5%)" stroke-width="1.5"></path><path d="M1152.91 516.86L1092.62 638.61" stroke="hsl(228.5, 77.2%, 51.5%)" stroke-width="1.5"></path><path d="M1152.91 516.86L969.99 558.79" stroke="hsl(228.5, 77.2%, 51.5%)" stroke-width="1.5"></path><path d="M1152.91 516.86L990.79 391.91" stroke="hsl(228.5, 77.2%, 51.5%)" stroke-width="1.5"></path><path d="M1092.62 638.61L1092.62 638.61" stroke="hsl(228.5, 77.2%, 51.5%)" stroke-width="1.5"></path><path d="M1092.62 638.61L1268.06 545.54" stroke="hsl(228.5, 77.2%, 51.5%)" stroke-width="1.5"></path><path d="M1255.47 -112.16L1255.47 -112.16" stroke="hsl(228.5, 77.2%, 51.5%)" stroke-width="1.5"></path><path d="M1255.47 -112.16L1440.11 67.06" stroke="hsl(228.5, 77.2%, 51.5%)" stroke-width="1.5"></path><path d="M1307.02 240.88L1307.02 240.88" stroke="hsl(228.5, 77.2%, 51.5%)" stroke-width="1.5"></path><path d="M1307.02 240.88L1410.44 246.29" stroke="hsl(228.5, 77.2%, 51.5%)" stroke-width="1.5"></path><path d="M1307.02 240.88L1293.13 356.21" stroke="hsl(228.5, 77.2%, 51.5%)" stroke-width="1.5"></path><path d="M1293.13 356.21L1293.13 356.21" stroke="hsl(228.5, 77.2%, 51.5%)" stroke-width="1.5"></path><path d="M1293.13 356.21L1410.44 246.29" stroke="hsl(228.5, 77.2%, 51.5%)" stroke-width="1.5"></path><path d="M1293.13 356.21L1457.68 372.21" stroke="hsl(228.5, 77.2%, 51.5%)" stroke-width="1.5"></path><path d="M1293.13 356.21L1268.06 545.54" stroke="hsl(228.5, 77.2%, 51.5%)" stroke-width="1.5"></path><path d="M1293.13 356.21L1094.73 364.26" stroke="hsl(228.5, 77.2%, 51.5%)" stroke-width="1.5"></path><path d="M1293.13 356.21L1156.11 209.5" stroke="hsl(228.5, 77.2%, 51.5%)" stroke-width="1.5"></path><path d="M1440.11 67.06L1440.11 67.06" stroke="hsl(228.5, 77.2%, 51.5%)" stroke-width="1.5"></path><path d="M1440.11 67.06L1568.81 81.27" stroke="hsl(228.5, 77.2%, 51.5%)" stroke-width="1.5"></path><path d="M1440.11 67.06L1410.44 246.29" stroke="hsl(228.5, 77.2%, 51.5%)" stroke-width="1.5"></path><path d="M1410.44 246.29L1410.44 246.29" stroke="hsl(228.5, 77.2%, 51.5%)" stroke-width="1.5"></path><path d="M1410.44 246.29L1457.68 372.21" stroke="hsl(228.5, 77.2%, 51.5%)" stroke-width="1.5"></path><path d="M1410.44 246.29L1575.9 238.04" stroke="hsl(228.5, 77.2%, 51.5%)" stroke-width="1.5"></path><path d="M1457.68 372.21L1457.68 372.21" stroke="hsl(228.5, 77.2%, 51.5%)" stroke-width="1.5"></path><path d="M1457.68 372.21L1545.56 362.08" stroke="hsl(228.5, 77.2%, 51.5%)" stroke-width="1.5"></path><path d="M1457.68 372.21L1436.06 528.06" stroke="hsl(228.5, 77.2%, 51.5%)" stroke-width="1.5"></path><path d="M1436.06 528.06L1436.06 528.06" stroke="hsl(228.5, 77.2%, 51.5%)" stroke-width="1.5"></path><path d="M1436.06 528.06L1268.06 545.54" stroke="hsl(228.5, 77.2%, 51.5%)" stroke-width="1.5"></path><path d="M1436.06 528.06L1434.87 703.81" stroke="hsl(228.5, 77.2%, 51.5%)" stroke-width="1.5"></path><path d="M1434.87 703.81L1434.87 703.81" stroke="hsl(228.5, 77.2%, 51.5%)" stroke-width="1.5"></path><path d="M1434.87 703.81L1568.78 704.76" stroke="hsl(228.5, 77.2%, 51.5%)" stroke-width="1.5"></path><path d="M1434.87 703.81L1268.06 545.54" stroke="hsl(228.5, 77.2%, 51.5%)" stroke-width="1.5"></path><path d="M1568.81 81.27L1568.81 81.27" stroke="hsl(228.5, 77.2%, 51.5%)" stroke-width="1.5"></path><path d="M1568.81 81.27L1575.9 238.04" stroke="hsl(228.5, 77.2%, 51.5%)" stroke-width="1.5"></path><path d="M1575.9 238.04L1575.9 238.04" stroke="hsl(228.5, 77.2%, 51.5%)" stroke-width="1.5"></path><path d="M1575.9 238.04L1545.56 362.08" stroke="hsl(228.5, 77.2%, 51.5%)" stroke-width="1.5"></path><path d="M1575.9 238.04L1457.68 372.21" stroke="hsl(228.5, 77.2%, 51.5%)" stroke-width="1.5"></path><path d="M1575.9 238.04L1440.11 67.06" stroke="hsl(228.5, 77.2%, 51.5%)" stroke-width="1.5"></path><path d="M1545.56 362.08L1545.56 362.08" stroke="hsl(228.5, 77.2%, 51.5%)" stroke-width="1.5"></path><path d="M1545.56 362.08L1410.44 246.29" stroke="hsl(228.5, 77.2%, 51.5%)" stroke-width="1.5"></path><path d="M1545.56 362.08L1436.06 528.06" stroke="hsl(228.5, 77.2%, 51.5%)" stroke-width="1.5"></path><path d="M1545.56 362.08L1293.13 356.21" stroke="hsl(228.5, 77.2%, 51.5%)" stroke-width="1.5"></path><path d="M1545.56 362.08L1307.02 240.88" stroke="hsl(228.5, 77.2%, 51.5%)" stroke-width="1.5"></path><path d="M1568.78 704.76L1568.78 704.76" stroke="hsl(228.5, 77.2%, 51.5%)" stroke-width="1.5"></path><path d="M1568.78 704.76L1436.06 528.06" stroke="hsl(228.5, 77.2%, 51.5%)" stroke-width="1.5"></path><circle r="25" cx="-79.76" cy="652.9" fill="url(#SvgjsRadialGradient1001)"></circle><circle r="25" cx="205.54" cy="654.44" fill="url(#SvgjsRadialGradient1001)"></circle><circle r="25" cx="362.13" cy="523.41" fill="url(#SvgjsRadialGradient1001)"></circle><circle r="25" cx="674.46" cy="517.65" fill="url(#SvgjsRadialGradient1001)"></circle><circle r="25" cx="850.34" cy="376.77" fill="url(#SvgjsRadialGradient1001)"></circle><circle r="25" cx="1154.85" cy="51.38" fill="url(#SvgjsRadialGradient1001)"></circle><circle r="25" cx="1094.73" cy="364.26" fill="url(#SvgjsRadialGradient1001)"></circle><circle r="25" cx="1290.92" cy="44.76" fill="url(#SvgjsRadialGradient1001)"></circle><circle r="25" cx="1268.06" cy="545.54" fill="url(#SvgjsRadialGradient1001)"></circle><circle r="25" cx="1290.08" cy="711.2" fill="url(#SvgjsRadialGradient1001)"></circle><circle r="25" cx="1436.94" cy="-52.42" fill="url(#SvgjsRadialGradient1001)"></circle><circle r="25" cx="1570.5" cy="-91.28" fill="url(#SvgjsRadialGradient1001)"></circle><circle r="5" cx="-92.2" cy="552.09" fill="#8b9ad9"></circle><circle r="5" cx="37.95" cy="541.01" fill="#8b9ad9"></circle><circle r="5" cx="98.47" cy="696.02" fill="#8b9ad9"></circle><circle r="5" cx="226.55" cy="558.54" fill="#8b9ad9"></circle><circle r="5" cx="386.03" cy="643.46" fill="#8b9ad9"></circle><circle r="5" cx="511.66" cy="409.57" fill="#8b9ad9"></circle><circle r="5" cx="512.52" cy="526.9" fill="#8b9ad9"></circle><circle r="5" cx="544.24" cy="686.62" fill="#8b9ad9"></circle><circle r="5" cx="664.37" cy="709.75" fill="#8b9ad9"></circle><circle r="5" cx="795.36" cy="531.46" fill="#8b9ad9"></circle><circle r="5" cx="792.77" cy="645.08" fill="#8b9ad9"></circle><circle r="5" cx="992.23" cy="234.87" fill="#8b9ad9"></circle><circle r="5" cx="990.79" cy="391.91" fill="#8b9ad9"></circle><circle r="5" cx="969.99" cy="558.79" fill="#8b9ad9"></circle><circle r="5" cx="1156.11" cy="209.5" fill="#8b9ad9"></circle><circle r="5" cx="1152.91" cy="516.86" fill="#8b9ad9"></circle><circle r="5" cx="1092.62" cy="638.61" fill="#8b9ad9"></circle><circle r="5" cx="1255.47" cy="-112.16" fill="#8b9ad9"></circle><circle r="5" cx="1307.02" cy="240.88" fill="#8b9ad9"></circle><circle r="5" cx="1293.13" cy="356.21" fill="#8b9ad9"></circle><circle r="5" cx="1440.11" cy="67.06" fill="#8b9ad9"></circle><circle r="5" cx="1410.44" cy="246.29" fill="#8b9ad9"></circle><circle r="5" cx="1457.68" cy="372.21" fill="#8b9ad9"></circle><circle r="5" cx="1436.06" cy="528.06" fill="#8b9ad9"></circle><circle r="5" cx="1434.87" cy="703.81" fill="#8b9ad9"></circle><circle r="5" cx="1568.81" cy="81.27" fill="#8b9ad9"></circle><circle r="5" cx="1575.9" cy="238.04" fill="#8b9ad9"></circle><circle r="5" cx="1545.56" cy="362.08" fill="#8b9ad9"></circle><circle r="5" cx="1568.78" cy="704.76" fill="#8b9ad9"></circle></g><defs><mask id="SvgjsMask1000"><rect width="1440" height="560" fill="#ffffff"></rect></mask><radialGradient id="SvgjsRadialGradient1001"><stop stop-color="#ffffff" offset="0.1"></stop><stop stop-color="#1735b3" offset="0.2"></stop><stop stop-color="rgba(23, 53, 179, 0)" offset="1"></stop></radialGradient></defs></svg>